PathFileType	4	(X/Y/Z)	/Users/itak/Documents/Research/Walk-IL/dataset/trc/00462_00167.trc
DataRate	CameraRate	NumFrames	NumMarkers	Units	OrigDataRate	OrigDataStartFrame	OrigNumFrames
100.000000	100.000000	4	53	mm	100.000000	350	560
Frame#	Time	RPSI			LPSI			L3			STRN			T10			C7			CLAV			RBAK			LBAK			LSHO			LUPA			LAEL			LAOL			LWTS			LWPS			LFRA			LIFD			LHPS			LHTS			RSHO			RUPA			RAEL			RAOL			RWTS			RWPS			RFRA			RIFD			RHTS			RHPS			RBHD			LFHD			RFHD			LBHD			LHIP			RHIP			RASI			LASI			LKNE			LTHI			LANK			LTIP			LTOE			LMT1			LMT5			LHEE			RKNE			RTHI			RANK			RTIP			RTOE			RMT1			RMT5			RHEE			
		X1	Y1	Z1	X2	Y2	Z2	X3	Y3	Z3	X4	Y4	Z4	X5	Y5	Z5	X6	Y6	Z6	X7	Y7	Z7	X8	Y8	Z8	X9	Y9	Z9	X10	Y10	Z10	X11	Y11	Z11	X12	Y12	Z12	X13	Y13	Z13	X14	Y14	Z14	X15	Y15	Z15	X16	Y16	Z16	X17	Y17	Z17	X18	Y18	Z18	X19	Y19	Z19	X20	Y20	Z20	X21	Y21	Z21	X22	Y22	Z22	X23	Y23	Z23	X24	Y24	Z24	X25	Y25	Z25	X26	Y26	Z26	X27	Y27	Z27	X28	Y28	Z28	X29	Y29	Z29	X30	Y30	Z30	X31	Y31	Z31	X32	Y32	Z32	X33	Y33	Z33	X34	Y34	Z34	X35	Y35	Z35	X36	Y36	Z36	X37	Y37	Z37	X38	Y38	Z38	X39	Y39	Z39	X40	Y40	Z40	X41	Y41	Z41	X42	Y42	Z42	X43	Y43	Z43	X44	Y44	Z44	X45	Y45	Z45	X46	Y46	Z46	X47	Y47	Z47	X48	Y48	Z48	X49	Y49	Z49	X50	Y50	Z50	X51	Y51	Z51	X52	Y52	Z52	X53	Y53	Z53	

351	3.5	108.6577377319336	949.7677612304688	-352.3077697753906	249.9120483398438	939.6068725585938	-371.00048828125	158.5508422851562	1046.113891601562	-346.68798828125	211.1900634765625	1250.305419921875	-79.22615814208984	153.7112274169922	1170.9208984375	-363.8611450195312	150.8841705322266	1439.168212890625	-295.4312438964844	204.8760528564453	1362.866088867188	-117.0403060913086	47.24082946777344	1317.188720703125	-336.5426940917969	241.1566467285156	1394.165161132812	-348.0286865234375	341.8534851074219	1419.9306640625	-266.1865539550781	435.1017761230469	1302.43603515625	-296.0615539550781	477.1712646484375	1087.402587890625	-272.7883911132812	395.2350158691406	1067.479370117188	-332.4945983886719	448.7117004394531	897.3975830078125	-158.9966735839844	496.8034057617188	877.4232177734375	-211.9640960693359	491.4046630859375	1002.576477050781	-242.8948516845703	453.6797180175781	727.078857421875	-143.2492523193359	500.5634765625	800.4305419921875	-195.5119171142578	462.8782653808594	811.4934692382812	-134.8668975830078	9.02370548248291	1415.923095703125	-200.8667907714844	-70.4422607421875	1356.9375	-202.5838165283203	-139.4293670654297	1078.862060546875	-151.9013977050781	-106.1045608520508	1047.239868164062	-203.1015930175781	-80.03784942626953	913.6738891601562	-1.522480845451355	-145.3713226318359	881.9982299804688	-51.8825569152832	-148.0348663330078	1024.2412109375	-130.5774230957031	-91.70477294921875	766.3062744140625	51.44986343383789	-93.61563110351562	826.7110595703125	46.00345230102539	-142.5379180908203	805.0587158203125	-8.314889907836914	84.13043975830078	1639.186767578125	-175.0520172119141	264.3404846191406	1638.669067382812	-71.94535827636719	135.7855834960938	1637.059936523438	-47.05142974853516	255.5208587646484	1647.43896484375	-224.0893249511719	386.3176879882812	852.0032348632812	-235.140869140625	-12.59444618225098	848.7415161132812	-214.0823364257812	61.1368408203125	894.3449096679688	-119.9040145874023	313.5599975585938	899.96728515625	-142.8652496337891	415.4046020507812	465.0872497558594	-90.01829528808594	422.1445922851562	620.552490234375	-99.83708190917969	382.6256103515625	106.385986328125	-330.3229675292969	425.6407775878906	327.1807250976562	-170.0004272460938	427.4715881347656	57.25357437133789	-108.7674026489258	365.9793701171875	63.19227981567383	-154.0296325683594	463.1416931152344	69.80010223388672	-211.1505126953125	305.7113342285156	114.5372009277344	-336.2348937988281	68.29531860351562	456.4496459960938	-205.6703033447266	7.712790489196777	712.8533325195312	-171.4620666503906	103.563850402832	38.28573226928711	-284.6109619140625	78.04856872558594	312.5054626464844	-211.9461059570312	219.7720184326172	42.68479156494141	-94.84382629394531	229.9890899658203	51.96715545654297	-166.7769775390625	121.167594909668	41.73938369750977	-150.2622222900391	127.7196197509766	33.79566955566406	-361.5697021484375	
352	3.51	112.0640258789062	949.3653564453125	-346.8224792480469	253.5490417480469	938.9754028320312	-364.1590270996094	161.3507385253906	1045.637329101562	-340.8235778808594	212.5518951416016	1249.830688476562	-72.78923797607422	156.4800109863281	1170.40625	-357.6977233886719	153.3328704833984	1438.662109375	-289.2739562988281	206.5802307128906	1362.391967773438	-110.6402435302734	49.73100280761719	1316.744873046875	-330.7581481933594	243.7348785400391	1393.541015625	-341.4019470214844	344.1601867675781	1419.41796875	-259.1545104980469	437.7506103515625	1302.136962890625	-288.8921813964844	480.0711975097656	1087.154174804688	-266.351318359375	398.6965637207031	1067.528076171875	-326.8146667480469	451.7012329101562	896.0859375	-154.33056640625	500.000244140625	876.6868286132812	-207.2721862792969	494.3681640625	1002.126831054688	-237.0967864990234	457.0928649902344	725.611572265625	-140.0688781738281	503.9411926269531	799.5760498046875	-191.4822845458984	465.9789428710938	809.9822387695312	-130.9085083007812	11.08176326751709	1415.53369140625	-195.2261199951172	-68.43466949462891	1356.591186523438	-197.1294708251953	-138.1228332519531	1078.895751953125	-145.4133605957031	-104.4507141113281	1046.775756835938	-196.1337280273438	-79.87239074707031	915.78662109375	7.27293586730957	-144.4351196289062	883.197509765625	-43.29751968383789	-146.7720031738281	1024.5126953125	-123.6114501953125	-91.69516754150391	769.1115112304688	62.26663970947266	-93.67427825927734	829.4262084960938	55.93101501464844	-141.8228607177734	806.7763061523438	1.405566215515137	86.14759826660156	1638.713500976562	-169.6128845214844	266.0706481933594	1638.631591796875	-66.02918243408203	137.4441375732422	1637.093627929688	-41.43438339233398	257.5879211425781	1646.79248046875	-218.2262573242188	388.9468383789062	852.05810546875	-226.7712249755859	-10.91933059692383	848.489990234375	-210.0855712890625	62.04985427856445	893.9321899414062	-115.3278274536133	314.5369567871094	899.81396484375	-135.4466400146484	415.1578369140625	465.9845581054688	-76.53012847900391	422.0198364257812	621.2235107421875	-88.73961639404297	391.7823791503906	96.62561798095703	-300.6678161621094	428.7060852050781	325.1567077636719	-149.8443145751953	431.31298828125	58.42989730834961	-75.92544555664062	371.0179138183594	61.57566833496094	-123.1121368408203	469.5162048339844	66.81864166259766	-177.8931579589844	315.0000610351562	103.6235961914062	-308.9742736816406	69.53791046142578	456.0469970703125	-202.4662780761719	9.088713645935059	712.3408203125	-167.6970977783203	103.7739791870117	38.45381927490234	-284.6566162109375	79.18135833740234	312.0099487304688	-209.8409118652344	219.8922729492188	42.65999603271484	-94.79705810546875	230.1310119628906	51.79919052124023	-166.7302093505859	121.2499847412109	41.7807502746582	-150.2849731445312	127.9597320556641	34.04991149902344	-361.6059265136719	
353	3.52	115.4756851196289	948.8761596679688	-341.2814636230469	257.165283203125	938.2833251953125	-357.2861938476562	164.2512054443359	1045.081176757812	-334.9595336914062	213.9281158447266	1249.2119140625	-66.33908081054688	159.3182525634766	1169.801147460938	-351.4885559082031	155.8466339111328	1438.052368164062	-283.0494079589844	208.3311157226562	1361.78173828125	-104.1969375610352	52.29819869995117	1316.243774414062	-324.9397583007812	246.3622436523438	1392.796020507812	-334.7219543457031	346.5289611816406	1418.758178710938	-252.08203125	440.4241943359375	1301.66943359375	-281.6693115234375	483.0053405761719	1086.761352539062	-259.8317565917969	402.2627868652344	1067.449829101562	-321.1107482910156	454.7870788574219	894.6017456054688	-149.6933898925781	503.3188171386719	875.8291625976562	-202.6129302978516	497.3794860839844	1001.522644042969	-231.2686767578125	460.8692016601562	724.0424194335938	-136.8556976318359	507.5465087890625	798.643798828125	-187.4692687988281	469.3012390136719	808.3510131835938	-126.9704818725586	13.20555305480957	1415.050048828125	-189.5098571777344	-66.38714599609375	1356.166259765625	-191.6201477050781	-136.8050231933594	1078.82568359375	-139.1097259521484	-102.8623580932617	1046.2421875	-189.4011383056641	-79.49387359619141	917.7147216796875	15.65314674377441	-143.3947296142578	884.228759765625	-35.02106475830078	-145.5016479492188	1024.675048828125	-116.8428039550781	-91.40160369873047	771.75927734375	72.63610076904297	-93.47014617919922	831.9757690429688	65.43122863769531	-140.9234008789062	808.3248291015625	10.80225849151611	88.21312713623047	1638.101196289062	-164.1345062255859	267.8379516601562	1638.546630859375	-60.07902526855469	139.156005859375	1637.066040039062	-35.76329803466797	259.7009887695312	1646.036254882812	-212.3517303466797	391.4596557617188	851.8778076171875	-218.4902954101562	-9.179655075073242	848.139892578125	-205.9372406005859	63.01113128662109	893.4356079101562	-110.7256774902344	315.6017150878906	899.4856567382812	-128.0327301025391	414.8334350585938	466.6552734375	-63.52316665649414	421.8427124023438	621.5579223632812	-78.25629425048828	400.8585815429688	87.34702301025391	-270.4703979492188	431.624755859375	323.1813659667969	-129.6735992431641	433.6668395996094	59.79759979248047	-43.12044906616211	374.9340209960938	60.30759811401367	-92.31124877929688	474.9693603515625	64.02439117431641	-144.1909484863281	324.3876342773438	93.37057495117188	-281.4472351074219	70.77497863769531	455.6029052734375	-199.1952972412109	10.4786376953125	711.789306640625	-163.7898559570312	103.9700622558594	38.62502670288086	-284.7076721191406	80.32392883300781	311.4816589355469	-207.7221374511719	220.0243377685547	42.63352203369141	-94.74569702148438	230.2934875488281	51.62650299072266	-166.6719512939453	121.3265686035156	41.82329177856445	-150.3107757568359	128.1951446533203	34.30223083496094	-361.6524353027344	
354	3.53	118.8850631713867	948.3140869140625	-335.67138671875	260.7436828613281	937.5309448242188	-350.3659973144531	167.254638671875	1044.446655273438	-329.0758361816406	215.3218536376953	1248.460083007812	-59.87434005737305	162.2237548828125	1169.104125976562	-345.2217102050781	158.42138671875	1437.343994140625	-276.7553100585938	210.1297302246094	1361.04443359375	-97.71031188964844	54.94776916503906	1315.682983398438	-319.087646484375	249.0428924560547	1391.937255859375	-327.9921569824219	348.95654296875	1417.959350585938	-244.979736328125	443.1156005859375	1301.0400390625	-274.4066467285156	485.9648742675781	1086.223388671875	-253.2323455810547	405.8702392578125	1067.229125976562	-315.3387145996094	457.9796752929688	892.9466552734375	-145.073974609375	506.742919921875	874.8488159179688	-197.9965209960938	500.4378051757812	1000.767395019531	-225.4141845703125	464.9462890625	722.3628540039062	-133.6351928710938	511.3414611816406	797.6192016601562	-183.4952545166016	472.8354797363281	806.59375	-123.0537338256836	15.39703273773193	1414.4775390625	-183.7258911132812	-64.29678344726562	1355.672973632812	-186.0633392333984	-135.453857421875	1078.661254882812	-132.9821014404297	-101.3184051513672	1045.650512695312	-182.8956604003906	-78.88255310058594	919.4224243164062	23.62224388122559	-142.2538452148438	885.0964965820312	-27.05083656311035	-144.2107543945312	1024.734619140625	-110.2647171020508	-90.83966827392578	774.213623046875	82.53300476074219	-93.0111083984375	834.3246459960938	74.49257659912109	-139.8679656982422	809.7056884765625	19.85161972045898	90.32357025146484	1637.361938476562	-158.5886383056641	269.6588745117188	1638.409545898438	-54.09704208374023	140.9378204345703	1636.972900390625	-30.02582550048828	261.8643188476562	1645.182983398438	-206.4634246826172	393.8388061523438	851.4398193359375	-210.2715606689453	-7.40587043762207	847.720947265625	-201.6404266357422	64.02853393554688	892.8063354492188	-105.9711303710938	316.7522583007812	898.9757080078125	-120.597785949707	414.4617004394531	467.0975952148438	-50.99814224243164	421.6378784179688	621.5493774414062	-68.36444091796875	409.7665405273438	78.70458984375	-239.8019561767578	434.3763732910156	321.3282165527344	-109.5329895019531	434.6201477050781	61.33835601806641	-10.50067806243896	377.79150390625	59.35748672485352	-61.7428092956543	479.5061950683594	61.53736877441406	-110.1783905029297	333.7825012207031	83.86048126220703	-253.6952056884766	71.99928283691406	455.1289367675781	-195.8686218261719	11.8657398223877	711.2045288085938	-159.732666015625	104.1495742797852	38.80282592773438	-284.756591796875	81.45231628417969	310.9331359863281	-205.5887145996094	220.1641845703125	42.60239410400391	-94.68242645263672	230.4617767333984	51.45681381225586	-166.603271484375	121.3898315429688	41.86240005493164	-150.3367004394531	128.42626953125	34.55730438232422	-361.7081298828125	
